<mxfile host="Electron" modified="2024-01-31T02:16:40.708Z" agent="Mozilla/5.0 (Windows NT 10.0; Win64; x64) AppleWebKit/537.36 (KHTML, like Gecko) draw.io/23.0.2 Chrome/120.0.6099.109 Electron/28.1.0 Safari/537.36" etag="v2J-iBlaMQkYsBw34Imu" version="23.0.2" type="device">
  <diagram name="Page-1" id="LfzGGOmJTFBn77U55ggR">
    <mxGraphModel dx="1036" dy="606" grid="1" gridSize="10" guides="1" tooltips="1" connect="1" arrows="1" fold="1" page="1" pageScale="1" pageWidth="726" pageHeight="379" math="0" shadow="0">
      <root>
        <mxCell id="0" />
        <mxCell id="1" parent="0" />
        <mxCell id="qbukvCbgXA-Ckh_LrVD_-8" style="edgeStyle=orthogonalEdgeStyle;rounded=0;orthogonalLoop=1;jettySize=auto;html=1;exitX=0.75;exitY=0.1;exitDx=0;exitDy=0;exitPerimeter=0;entryX=0;entryY=0.5;entryDx=0;entryDy=0;" edge="1" parent="1" source="qbukvCbgXA-Ckh_LrVD_-1" target="qbukvCbgXA-Ckh_LrVD_-3">
          <mxGeometry relative="1" as="geometry" />
        </mxCell>
        <mxCell id="qbukvCbgXA-Ckh_LrVD_-10" style="edgeStyle=orthogonalEdgeStyle;rounded=0;orthogonalLoop=1;jettySize=auto;html=1;exitX=0.5;exitY=0.5;exitDx=0;exitDy=0;exitPerimeter=0;entryX=0;entryY=0.5;entryDx=0;entryDy=0;" edge="1" parent="1" source="qbukvCbgXA-Ckh_LrVD_-1" target="qbukvCbgXA-Ckh_LrVD_-6">
          <mxGeometry relative="1" as="geometry">
            <Array as="points">
              <mxPoint x="140" y="55" />
              <mxPoint x="140" y="180" />
              <mxPoint x="223" y="180" />
              <mxPoint x="223" y="225" />
            </Array>
          </mxGeometry>
        </mxCell>
        <mxCell id="qbukvCbgXA-Ckh_LrVD_-12" style="edgeStyle=orthogonalEdgeStyle;rounded=0;orthogonalLoop=1;jettySize=auto;html=1;exitX=0;exitY=1;exitDx=0;exitDy=0;exitPerimeter=0;entryX=0;entryY=0.5;entryDx=0;entryDy=0;" edge="1" parent="1" source="qbukvCbgXA-Ckh_LrVD_-1" target="qbukvCbgXA-Ckh_LrVD_-7">
          <mxGeometry relative="1" as="geometry">
            <Array as="points">
              <mxPoint x="40" y="85" />
              <mxPoint x="40" y="405" />
            </Array>
          </mxGeometry>
        </mxCell>
        <mxCell id="qbukvCbgXA-Ckh_LrVD_-1" value="Admin" style="shape=umlActor;verticalLabelPosition=bottom;verticalAlign=top;html=1;outlineConnect=0;" vertex="1" parent="1">
          <mxGeometry x="80" y="25" width="30" height="60" as="geometry" />
        </mxCell>
        <mxCell id="qbukvCbgXA-Ckh_LrVD_-16" style="edgeStyle=orthogonalEdgeStyle;rounded=0;orthogonalLoop=1;jettySize=auto;html=1;exitX=0;exitY=1;exitDx=0;exitDy=0;exitPerimeter=0;entryX=1;entryY=0.5;entryDx=0;entryDy=0;" edge="1" parent="1" source="qbukvCbgXA-Ckh_LrVD_-2" target="qbukvCbgXA-Ckh_LrVD_-15">
          <mxGeometry relative="1" as="geometry">
            <Array as="points">
              <mxPoint x="630" y="315" />
            </Array>
          </mxGeometry>
        </mxCell>
        <mxCell id="qbukvCbgXA-Ckh_LrVD_-2" value="Employee" style="shape=umlActor;verticalLabelPosition=bottom;verticalAlign=top;html=1;outlineConnect=0;" vertex="1" parent="1">
          <mxGeometry x="630" y="250" width="30" height="60" as="geometry" />
        </mxCell>
        <mxCell id="qbukvCbgXA-Ckh_LrVD_-13" style="edgeStyle=orthogonalEdgeStyle;rounded=0;orthogonalLoop=1;jettySize=auto;html=1;exitX=1;exitY=0.5;exitDx=0;exitDy=0;" edge="1" parent="1" source="qbukvCbgXA-Ckh_LrVD_-3" target="qbukvCbgXA-Ckh_LrVD_-2">
          <mxGeometry relative="1" as="geometry" />
        </mxCell>
        <mxCell id="qbukvCbgXA-Ckh_LrVD_-3" value="Login/Register" style="ellipse;whiteSpace=wrap;html=1;" vertex="1" parent="1">
          <mxGeometry x="308" width="110" height="70" as="geometry" />
        </mxCell>
        <mxCell id="qbukvCbgXA-Ckh_LrVD_-5" value="View personal details&amp;nbsp;" style="ellipse;whiteSpace=wrap;html=1;" vertex="1" parent="1">
          <mxGeometry x="310" y="85" width="110" height="70" as="geometry" />
        </mxCell>
        <mxCell id="qbukvCbgXA-Ckh_LrVD_-6" value="Manage Employee" style="ellipse;whiteSpace=wrap;html=1;" vertex="1" parent="1">
          <mxGeometry x="308" y="190" width="110" height="70" as="geometry" />
        </mxCell>
        <mxCell id="qbukvCbgXA-Ckh_LrVD_-7" value="Manage Leave and Salary Structure of Employess" style="ellipse;whiteSpace=wrap;html=1;" vertex="1" parent="1">
          <mxGeometry x="305" y="370" width="120" height="70" as="geometry" />
        </mxCell>
        <mxCell id="qbukvCbgXA-Ckh_LrVD_-14" style="edgeStyle=orthogonalEdgeStyle;rounded=0;orthogonalLoop=1;jettySize=auto;html=1;exitX=1;exitY=0.5;exitDx=0;exitDy=0;entryX=0;entryY=0.3333333333333333;entryDx=0;entryDy=0;entryPerimeter=0;" edge="1" parent="1" source="qbukvCbgXA-Ckh_LrVD_-5" target="qbukvCbgXA-Ckh_LrVD_-2">
          <mxGeometry relative="1" as="geometry" />
        </mxCell>
        <mxCell id="qbukvCbgXA-Ckh_LrVD_-15" value="Apply for leave and Download Salary Slip" style="ellipse;whiteSpace=wrap;html=1;" vertex="1" parent="1">
          <mxGeometry x="310" y="280" width="110" height="70" as="geometry" />
        </mxCell>
      </root>
    </mxGraphModel>
  </diagram>
</mxfile>
